<svg xmlns="http://www.w3.org/2000/svg" viewBox="0 0 24 24" fill="white">
  <path d="M12 0C5.4 0 0 5.3 0 12c0 5 3 9.3 7.6 11.1-.1-.8-.2-2 .1-2.9.2-.8 1.2-5 1.2-5s-.3-.7-.3-1.8c0-1.7 1-3 2.2-3 1 0 1.5.7 1.5 1.7 0 1-.6 2.6-1 4-.3.9.4 1.6 1.4 1.6 1.6 0 3-1.8 3-4.3 0-2.9-2.1-4.9-5.1-4.9-3.5 0-5.5 2.5-5.5 5.3 0 1 .4 2.1.9 2.7.1.1.1.2.1.3-.1.4-.3.5-.8.3C3.4 17 2.7 14.8 2.7 13c0-4.1 3-7 8.5-7 4.5 0 7.8 3.3 7.8 7.4 0 4.6-2.6 8.2-6.5 8.2-1.3 0-2.5-.7-2.9-1.5l-.7 2.9c-.2.8-.9 1.7-1.3 2.2.9.2 1.8.4 2.9.4 6.6 0 12-5.4 12-12S18.6 0 12 0z"/>
</svg>
